<svg width="1440" height="101" viewBox="0 0 1440 101" fill="none" xmlns="http://www.w3.org/2000/svg">
<g filter="url(#filter0_d_5803_2444)">
<path d="M-11 0V93H-5.33216C-5.0864 91.1247 -3.4736 89.6645 -1.52288 89.6645C0.427837 89.6645 2.04064 91.1247 2.2864 93H8.00031C8.24607 91.1247 9.85887 89.6645 11.8096 89.6645C13.7603 89.6645 15.3731 91.1247 15.6189 93H21.3482C21.5939 91.1247 23.2067 89.6645 25.1574 89.6645C27.1081 89.6645 28.721 91.1247 28.9667 93H34.696C34.9417 91.1247 36.5545 89.6645 38.5053 89.6645C40.456 89.6645 42.0688 91.1247 42.3145 93H48.0438C48.2896 91.1247 49.9024 89.6645 51.8531 89.6645C53.8038 89.6645 55.4166 91.1247 55.6624 93H61.3763C61.6221 91.1247 63.2349 89.6645 65.1856 89.6645C67.1363 89.6645 68.7491 91.1247 68.9949 93H74.7241C74.9699 91.1247 76.5827 89.6645 78.5334 89.6645C80.4841 89.6645 82.0969 91.1247 82.3427 93H88.072C88.3177 91.1247 89.9305 89.6645 91.8813 89.6645C93.832 89.6645 95.4448 91.1247 95.6905 93H101.42C101.666 91.1247 103.278 89.6645 105.229 89.6645C107.18 89.6645 108.793 91.1247 109.038 93H114.752C114.998 91.1247 116.611 89.6645 118.562 89.6645C120.512 89.6645 122.125 91.1247 122.371 93H128.1C128.346 91.1247 129.959 89.6645 131.909 89.6645C133.86 89.6645 135.473 91.1247 135.719 93H141.448C141.694 91.1247 143.307 89.6645 145.257 89.6645C147.208 89.6645 148.821 91.1247 149.067 93H154.796C155.042 91.1247 156.654 89.6645 158.605 89.6645C160.556 89.6645 162.169 91.1247 162.414 93H168.128C168.374 91.1247 169.987 89.6645 171.938 89.6645C173.888 89.6645 175.501 91.1247 175.747 93H181.476C181.722 91.1247 183.335 89.6645 185.285 89.6645C187.236 89.6645 188.849 91.1247 189.095 93H194.824C195.07 91.1247 196.682 89.6645 198.633 89.6645C200.584 89.6645 202.197 91.1247 202.443 93H208.172C208.418 91.1247 210.03 89.6645 211.981 89.6645C213.932 89.6645 215.545 91.1247 215.79 93H221.504C221.75 91.1247 223.363 89.6645 225.314 89.6645C227.264 89.6645 228.877 91.1247 229.123 93H234.852C235.098 91.1247 236.711 89.6645 238.661 89.6645C240.612 89.6645 242.225 91.1247 242.471 93H248.2C248.446 91.1247 250.058 89.6645 252.009 89.6645C253.96 89.6645 255.573 91.1247 255.818 93H261.548C261.794 91.1247 263.406 89.6645 265.357 89.6645C267.308 89.6645 268.921 91.1247 269.166 93H274.88C275.126 91.1247 276.739 89.6645 278.69 89.6645C280.64 89.6645 282.253 91.1247 282.499 93H288.228C288.474 91.1247 290.087 89.6645 292.037 89.6645C293.988 89.6645 295.601 91.1247 295.847 93H301.576C301.822 91.1247 303.434 89.6645 305.385 89.6645C307.336 89.6645 308.949 91.1247 309.194 93H314.924C315.17 91.1247 316.782 89.6645 318.733 89.6645C320.684 89.6645 322.297 91.1247 322.542 93H328.256C328.502 91.1247 330.115 89.6645 332.066 89.6645C334.016 89.6645 335.629 91.1247 335.875 93H341.604C341.85 91.1247 343.463 89.6645 345.413 89.6645C347.364 89.6645 348.977 91.1247 349.223 93H357.671C357.916 91.1247 359.529 89.6645 361.48 89.6645C363.431 89.6645 365.043 91.1247 365.289 93H371.003C371.249 91.1247 372.862 89.6645 374.812 89.6645C376.763 89.6645 378.376 91.1247 378.622 93H384.351C384.597 91.1247 386.209 89.6645 388.16 89.6645C390.111 89.6645 391.724 91.1247 391.969 93H397.699C397.944 91.1247 399.557 89.6645 401.508 89.6645C403.459 89.6645 405.072 91.1247 405.317 93H411.047C411.292 91.1247 412.905 89.6645 414.856 89.6645C416.807 89.6645 418.419 91.1247 418.665 93H424.379C424.625 91.1247 426.238 89.6645 428.188 89.6645C430.139 89.6645 431.752 91.1247 431.998 93H437.727C437.973 91.1247 439.585 89.6645 441.536 89.6645C443.487 89.6645 445.1 91.1247 445.345 93H451.075C451.32 91.1247 452.933 89.6645 454.884 89.6645C456.835 89.6645 458.448 91.1247 458.693 93H464.423C464.668 91.1247 466.281 89.6645 468.232 89.6645C470.183 89.6645 471.795 91.1247 472.041 93H477.755C478.001 91.1247 479.614 89.6645 481.564 89.6645C483.515 89.6645 485.128 91.1247 485.374 93H491.103C491.349 91.1247 492.961 89.6645 494.912 89.6645C496.863 89.6645 498.476 91.1247 498.721 93H504.451C504.697 91.1247 506.309 89.6645 508.26 89.6645C510.211 89.6645 511.824 91.1247 512.069 93H517.799C518.044 91.1247 519.657 89.6645 521.608 89.6645C523.559 89.6645 525.171 91.1247 525.417 93H531.131C531.377 91.1247 532.99 89.6645 534.94 89.6645C536.891 89.6645 538.504 91.1247 538.75 93H544.479C544.725 91.1247 546.337 89.6645 548.288 89.6645C550.239 89.6645 551.852 91.1247 552.097 93H557.827C558.072 91.1247 559.685 89.6645 561.636 89.6645C563.587 89.6645 565.199 91.1247 565.445 93H571.175C571.42 91.1247 573.033 89.6645 574.984 89.6645C576.935 89.6645 578.547 91.1247 578.793 93H584.507C584.753 91.1247 586.366 89.6645 588.316 89.6645C590.267 89.6645 591.88 91.1247 592.126 93H597.855C598.101 91.1247 599.713 89.6645 601.664 89.6645C603.615 89.6645 605.228 91.1247 605.473 93H611.203C611.448 91.1247 613.061 89.6645 615.012 89.6645C616.963 89.6645 618.575 91.1247 618.821 93H624.55C624.796 91.1247 626.409 89.6645 628.36 89.6645C630.311 89.6645 631.923 91.1247 632.169 93H637.883C638.129 91.1247 639.742 89.6645 641.692 89.6645C643.643 89.6645 645.256 91.1247 645.502 93H651.231C651.477 91.1247 653.089 89.6645 655.04 89.6645C656.991 89.6645 658.604 91.1247 658.849 93H664.579C664.824 91.1247 666.437 89.6645 668.388 89.6645C670.339 89.6645 671.951 91.1247 672.197 93H677.927C678.172 91.1247 679.785 89.6645 681.736 89.6645C683.687 89.6645 685.299 91.1247 685.545 93H691.259C691.505 91.1247 693.118 89.6645 695.068 89.6645C697.019 89.6645 698.632 91.1247 698.878 93H704.607C704.853 91.1247 706.465 89.6645 708.416 89.6645C710.367 89.6645 711.98 91.1247 712.225 93H722.025C722.271 91.1247 723.884 89.6645 725.834 89.6645C727.785 89.6645 729.398 91.1247 729.644 93H735.358C735.603 91.1247 737.216 89.6645 739.167 89.6645C741.118 89.6645 742.73 91.1247 742.976 93H748.705C748.951 91.1247 750.564 89.6645 752.515 89.6645C754.465 89.6645 756.078 91.1247 756.324 93H762.053C762.299 91.1247 763.912 89.6645 765.863 89.6645C767.813 89.6645 769.426 91.1247 769.672 93H775.401C775.647 91.1247 777.26 89.6645 779.21 89.6645C781.161 89.6645 782.774 91.1247 783.02 93H788.733C788.979 91.1247 790.592 89.6645 792.543 89.6645C794.494 89.6645 796.106 91.1247 796.352 93H802.081C802.327 91.1247 803.94 89.6645 805.891 89.6645C807.841 89.6645 809.454 91.1247 809.7 93H815.429C815.675 91.1247 817.288 89.6645 819.239 89.6645C821.189 89.6645 822.802 91.1247 823.048 93H828.777C829.023 91.1247 830.636 89.6645 832.586 89.6645C834.537 89.6645 836.15 91.1247 836.396 93H842.109C842.355 91.1247 843.968 89.6645 845.919 89.6645C847.87 89.6645 849.482 91.1247 849.728 93H855.457C855.703 91.1247 857.316 89.6645 859.267 89.6645C861.217 89.6645 862.83 91.1247 863.076 93H868.805C869.051 91.1247 870.664 89.6645 872.615 89.6645C874.565 89.6645 876.178 91.1247 876.424 93H882.153C882.399 91.1247 884.012 89.6645 885.962 89.6645C887.913 89.6645 889.526 91.1247 889.772 93H895.485C895.731 91.1247 897.344 89.6645 899.295 89.6645C901.246 89.6645 902.858 91.1247 903.104 93H908.833C909.079 91.1247 910.692 89.6645 912.643 89.6645C914.593 89.6645 916.206 91.1247 916.452 93H922.181C922.427 91.1247 924.04 89.6645 925.99 89.6645C927.941 89.6645 929.554 91.1247 929.8 93H935.529C935.775 91.1247 937.388 89.6645 939.338 89.6645C941.289 89.6645 942.902 91.1247 943.148 93H948.861C949.107 91.1247 950.72 89.6645 952.671 89.6645C954.622 89.6645 956.234 91.1247 956.48 93H962.209C962.455 91.1247 964.068 89.6645 966.019 89.6645C967.969 89.6645 969.582 91.1247 969.828 93H975.557C975.803 91.1247 977.416 89.6645 979.366 89.6645C981.317 89.6645 982.93 91.1247 983.176 93H988.905C989.151 91.1247 990.764 89.6645 992.714 89.6645C994.665 89.6645 996.278 91.1247 996.524 93H1002.24C1002.48 91.1247 1004.1 89.6645 1006.05 89.6645C1008 89.6645 1009.61 91.1247 1009.86 93H1015.59C1015.83 91.1247 1017.44 89.6645 1019.39 89.6645C1021.35 89.6645 1022.96 91.1247 1023.2 93H1028.93C1029.18 91.1247 1030.79 89.6645 1032.74 89.6645C1034.69 89.6645 1036.31 91.1247 1036.55 93H1042.28C1042.53 91.1247 1044.14 89.6645 1046.09 89.6645C1048.04 89.6645 1049.65 91.1247 1049.9 93H1055.61C1055.86 91.1247 1057.47 89.6645 1059.42 89.6645C1061.37 89.6645 1062.99 91.1247 1063.23 93H1068.96C1069.21 91.1247 1070.82 89.6645 1072.77 89.6645C1074.72 89.6645 1076.33 91.1247 1076.58 93H1085.03C1085.27 91.1247 1086.89 89.6645 1088.84 89.6645C1090.79 89.6645 1092.4 91.1247 1092.65 93H1098.36C1098.61 91.1247 1100.22 89.6645 1102.17 89.6645C1104.12 89.6645 1105.73 91.1247 1105.98 93H1111.71C1111.95 91.1247 1113.57 89.6645 1115.52 89.6645C1117.47 89.6645 1119.08 91.1247 1119.33 93H1125.06C1125.3 91.1247 1126.91 89.6645 1128.87 89.6645C1130.82 89.6645 1132.43 91.1247 1132.67 93H1138.4C1138.65 91.1247 1140.26 89.6645 1142.21 89.6645C1144.16 89.6645 1145.78 91.1247 1146.02 93H1151.74C1151.98 91.1247 1153.59 89.6645 1155.55 89.6645C1157.5 89.6645 1159.11 91.1247 1159.35 93H1165.08C1165.33 91.1247 1166.94 89.6645 1168.89 89.6645C1170.84 89.6645 1172.46 91.1247 1172.7 93H1178.43C1178.68 91.1247 1180.29 89.6645 1182.24 89.6645C1184.19 89.6645 1185.8 91.1247 1186.05 93H1191.78C1192.03 91.1247 1193.64 89.6645 1195.59 89.6645C1197.54 89.6645 1199.15 91.1247 1199.4 93H1205.11C1205.36 91.1247 1206.97 89.6645 1208.92 89.6645C1210.87 89.6645 1212.49 91.1247 1212.73 93H1218.46C1218.71 91.1247 1220.32 89.6645 1222.27 89.6645C1224.22 89.6645 1225.83 91.1247 1226.08 93H1231.81C1232.05 91.1247 1233.67 89.6645 1235.62 89.6645C1237.57 89.6645 1239.18 91.1247 1239.43 93H1245.16C1245.4 91.1247 1247.01 89.6645 1248.97 89.6645C1250.92 89.6645 1252.53 91.1247 1252.77 93H1258.49C1258.73 91.1247 1260.35 89.6645 1262.3 89.6645C1264.25 89.6645 1265.86 91.1247 1266.11 93H1271.84C1272.08 91.1247 1273.69 89.6645 1275.65 89.6645C1277.6 89.6645 1279.21 91.1247 1279.45 93H1285.18C1285.43 91.1247 1287.04 89.6645 1288.99 89.6645C1290.94 89.6645 1292.56 91.1247 1292.8 93H1298.53C1298.78 91.1247 1300.39 89.6645 1302.34 89.6645C1304.29 89.6645 1305.9 91.1247 1306.15 93H1311.86C1312.11 91.1247 1313.72 89.6645 1315.67 89.6645C1317.62 89.6645 1319.24 91.1247 1319.48 93H1325.21C1325.46 91.1247 1327.07 89.6645 1329.02 89.6645C1330.97 89.6645 1332.59 91.1247 1332.83 93H1338.56C1338.81 91.1247 1340.42 89.6645 1342.37 89.6645C1344.32 89.6645 1345.93 91.1247 1346.18 93H1351.91C1352.15 91.1247 1353.77 89.6645 1355.72 89.6645C1357.67 89.6645 1359.28 91.1247 1359.53 93H1365.24C1365.49 91.1247 1367.1 89.6645 1369.05 89.6645C1371 89.6645 1372.61 91.1247 1372.86 93H1378.59C1378.83 91.1247 1380.45 89.6645 1382.4 89.6645C1384.35 89.6645 1385.96 91.1247 1386.21 93H1391.94C1392.18 91.1247 1393.79 89.6645 1395.75 89.6645C1397.7 89.6645 1399.31 91.1247 1399.55 93H1405.28C1405.53 91.1247 1407.14 89.6645 1409.09 89.6645C1411.04 89.6645 1412.66 91.1247 1412.9 93H1418.62C1418.86 91.1247 1420.47 89.6645 1422.43 89.6645C1424.38 89.6645 1425.99 91.1247 1426.23 93H1431.96C1432.21 91.1247 1433.82 89.6645 1435.77 89.6645C1437.72 89.6645 1439.34 91.1247 1439.58 93H1448V0H-11Z" fill="#F9F8F3" fill-opacity="0.8" shape-rendering="crispEdges"/>
</g>
<defs>
<filter id="filter0_d_5803_2444" x="-15" y="0" width="1467" height="101" filterUnits="userSpaceOnUse" color-interpolation-filters="sRGB">
<feFlood flood-opacity="0" result="BackgroundImageFix"/>
<feColorMatrix in="SourceAlpha" type="matrix" values="0 0 0 0 0 0 0 0 0 0 0 0 0 0 0 0 0 0 127 0" result="hardAlpha"/>
<feOffset dy="4"/>
<feGaussianBlur stdDeviation="2"/>
<feComposite in2="hardAlpha" operator="out"/>
<feColorMatrix type="matrix" values="0 0 0 0 0 0 0 0 0 0 0 0 0 0 0 0 0 0 0.25 0"/>
<feBlend mode="normal" in2="BackgroundImageFix" result="effect1_dropShadow_5803_2444"/>
<feBlend mode="normal" in="SourceGraphic" in2="effect1_dropShadow_5803_2444" result="shape"/>
</filter>
</defs>
</svg>
